<?xml version="1.0" encoding="UTF-8" standalone="no"?>
<!DOCTYPE svg PUBLIC "-//W3C//DTD SVG 1.1//EN"
 "http://www.w3.org/Graphics/SVG/1.1/DTD/svg11.dtd">
<!-- Generated by graphviz version 2.26.3 (20100126.1600)
 -->
<!-- Title: G Pages: 1 -->
<svg width="1018pt" height="1356pt"
 viewBox="0.00 0.00 1018.00 1356.00" xmlns="http://www.w3.org/2000/svg" xmlns:xlink="http://www.w3.org/1999/xlink">
<g id="graph1" class="graph" transform="scale(1 1) rotate(0) translate(4 1352)">
<title>G</title>
<polygon fill="white" stroke="white" points="-4,5 -4,-1352 1015,-1352 1015,5 -4,5"/>
<g id="graph2" class="cluster"><title>cluster_Xazure</title>
<polyline fill="none" stroke="gray" points="20,-8 990,-8 "/>
<path fill="none" stroke="gray" d="M990,-8C996,-8 1002,-14 1002,-20"/>
<polyline fill="none" stroke="gray" points="1002,-20 1002,-1328 "/>
<path fill="none" stroke="gray" d="M1002,-1328C1002,-1334 996,-1340 990,-1340"/>
<polyline fill="none" stroke="gray" points="990,-1340 20,-1340 "/>
<path fill="none" stroke="gray" d="M20,-1340C14,-1340 8,-1334 8,-1328"/>
<polyline fill="none" stroke="gray" points="8,-1328 8,-20 "/>
<path fill="none" stroke="gray" d="M8,-20C8,-14 14,-8 20,-8"/>
<text text-anchor="middle" x="505" y="-1326.1" font-family="Times Roman,serif" font-size="11.00" fill="gray">Xazure</text>
</g>
<g id="graph3" class="cluster"><title>cluster_Xazure\Css</title>
<polyline fill="none" stroke="gray" points="28,-16 824,-16 "/>
<path fill="none" stroke="gray" d="M824,-16C830,-16 836,-22 836,-28"/>
<polyline fill="none" stroke="gray" points="836,-28 836,-1298 "/>
<path fill="none" stroke="gray" d="M836,-1298C836,-1304 830,-1310 824,-1310"/>
<polyline fill="none" stroke="gray" points="824,-1310 28,-1310 "/>
<path fill="none" stroke="gray" d="M28,-1310C22,-1310 16,-1304 16,-1298"/>
<polyline fill="none" stroke="gray" points="16,-1298 16,-28 "/>
<path fill="none" stroke="gray" d="M16,-28C16,-22 22,-16 28,-16"/>
<text text-anchor="middle" x="426" y="-1296.1" font-family="Times Roman,serif" font-size="11.00" fill="gray">Css</text>
</g>
<g id="graph4" class="cluster"><title>cluster_Xazure\Css\Element</title>
<polyline fill="none" stroke="gray" points="36,-970 747,-970 "/>
<path fill="none" stroke="gray" d="M747,-970C753,-970 759,-976 759,-982"/>
<polyline fill="none" stroke="gray" points="759,-982 759,-1268 "/>
<path fill="none" stroke="gray" d="M759,-1268C759,-1274 753,-1280 747,-1280"/>
<polyline fill="none" stroke="gray" points="747,-1280 36,-1280 "/>
<path fill="none" stroke="gray" d="M36,-1280C30,-1280 24,-1274 24,-1268"/>
<polyline fill="none" stroke="gray" points="24,-1268 24,-982 "/>
<path fill="none" stroke="gray" d="M24,-982C24,-976 30,-970 36,-970"/>
<text text-anchor="middle" x="391.5" y="-1266.1" font-family="Times Roman,serif" font-size="11.00" fill="gray">Element</text>
</g>
<g id="graph5" class="cluster"><title>cluster_Xazure\Css\Plugin</title>
<polyline fill="none" stroke="gray" points="249,-152 816,-152 "/>
<path fill="none" stroke="gray" d="M816,-152C822,-152 828,-158 828,-164"/>
<polyline fill="none" stroke="gray" points="828,-164 828,-950 "/>
<path fill="none" stroke="gray" d="M828,-950C828,-956 822,-962 816,-962"/>
<polyline fill="none" stroke="gray" points="816,-962 249,-962 "/>
<path fill="none" stroke="gray" d="M249,-962C243,-962 237,-956 237,-950"/>
<polyline fill="none" stroke="gray" points="237,-950 237,-164 "/>
<path fill="none" stroke="gray" d="M237,-164C237,-158 243,-152 249,-152"/>
<text text-anchor="middle" x="532.5" y="-948.1" font-family="Times Roman,serif" font-size="11.00" fill="gray">Plugin</text>
</g>
<g id="graph6" class="cluster"><title>cluster_Xazure\Css\Plugin\Callback</title>
<polyline fill="none" stroke="gray" points="257,-480 808,-480 "/>
<path fill="none" stroke="gray" d="M808,-480C814,-480 820,-486 820,-492"/>
<polyline fill="none" stroke="gray" points="820,-492 820,-920 "/>
<path fill="none" stroke="gray" d="M820,-920C820,-926 814,-932 808,-932"/>
<polyline fill="none" stroke="gray" points="808,-932 257,-932 "/>
<path fill="none" stroke="gray" d="M257,-932C251,-932 245,-926 245,-920"/>
<polyline fill="none" stroke="gray" points="245,-920 245,-492 "/>
<path fill="none" stroke="gray" d="M245,-492C245,-486 251,-480 257,-480"/>
<text text-anchor="middle" x="532.5" y="-918.1" font-family="Times Roman,serif" font-size="11.00" fill="gray">Callback</text>
</g>
<g id="graph7" class="cluster"><title>cluster_Xazure\Css\Plugin\NoPrefix</title>
<polyline fill="none" stroke="gray" points="642,-260 802,-260 "/>
<path fill="none" stroke="gray" d="M802,-260C808,-260 814,-266 814,-272"/>
<polyline fill="none" stroke="gray" points="814,-272 814,-460 "/>
<path fill="none" stroke="gray" d="M814,-460C814,-466 808,-472 802,-472"/>
<polyline fill="none" stroke="gray" points="802,-472 642,-472 "/>
<path fill="none" stroke="gray" d="M642,-472C636,-472 630,-466 630,-460"/>
<polyline fill="none" stroke="gray" points="630,-460 630,-272 "/>
<path fill="none" stroke="gray" d="M630,-272C630,-266 636,-260 642,-260"/>
<text text-anchor="middle" x="722" y="-458.1" font-family="Times Roman,serif" font-size="11.00" fill="gray">NoPrefix</text>
</g>
<g id="graph8" class="cluster"><title>cluster_Xazure\Css\Plugin\NoPrefix\Property</title>
<polyline fill="none" stroke="gray" points="650,-314 794,-314 "/>
<path fill="none" stroke="gray" d="M794,-314C800,-314 806,-320 806,-326"/>
<polyline fill="none" stroke="gray" points="806,-326 806,-430 "/>
<path fill="none" stroke="gray" d="M806,-430C806,-436 800,-442 794,-442"/>
<polyline fill="none" stroke="gray" points="794,-442 650,-442 "/>
<path fill="none" stroke="gray" d="M650,-442C644,-442 638,-436 638,-430"/>
<polyline fill="none" stroke="gray" points="638,-430 638,-326 "/>
<path fill="none" stroke="gray" d="M638,-326C638,-320 644,-314 650,-314"/>
<text text-anchor="middle" x="722" y="-428.1" font-family="Times Roman,serif" font-size="11.00" fill="gray">Property</text>
</g>
<g id="graph14" class="cluster"><title>cluster_Xazure\Css\Setting</title>
<polyline fill="none" stroke="gray" points="660,-70 784,-70 "/>
<path fill="none" stroke="gray" d="M784,-70C790,-70 796,-76 796,-82"/>
<polyline fill="none" stroke="gray" points="796,-82 796,-132 "/>
<path fill="none" stroke="gray" d="M796,-132C796,-138 790,-144 784,-144"/>
<polyline fill="none" stroke="gray" points="784,-144 660,-144 "/>
<path fill="none" stroke="gray" d="M660,-144C654,-144 648,-138 648,-132"/>
<polyline fill="none" stroke="gray" points="648,-132 648,-82 "/>
<path fill="none" stroke="gray" d="M648,-82C648,-76 654,-70 660,-70"/>
<text text-anchor="middle" x="722" y="-130.1" font-family="Times Roman,serif" font-size="11.00" fill="gray">Setting</text>
</g>
<g id="graph16" class="cluster"><title>cluster_Xazure\Plugin</title>
<polyline fill="none" stroke="gray" points="872,-298 982,-298 "/>
<path fill="none" stroke="gray" d="M982,-298C988,-298 994,-304 994,-310"/>
<polyline fill="none" stroke="gray" points="994,-310 994,-436 "/>
<path fill="none" stroke="gray" d="M994,-436C994,-442 988,-448 982,-448"/>
<polyline fill="none" stroke="gray" points="982,-448 872,-448 "/>
<path fill="none" stroke="gray" d="M872,-448C866,-448 860,-442 860,-436"/>
<polyline fill="none" stroke="gray" points="860,-436 860,-310 "/>
<path fill="none" stroke="gray" d="M860,-310C860,-304 866,-298 872,-298"/>
<text text-anchor="middle" x="927" y="-434.1" font-family="Times Roman,serif" font-size="11.00" fill="gray">Plugin</text>
</g>
<g id="graph17" class="cluster"><title>cluster_Xazure\Plugin\NoPrefix</title>
<polyline fill="none" stroke="gray" points="880,-306 974,-306 "/>
<path fill="none" stroke="gray" d="M974,-306C980,-306 986,-312 986,-318"/>
<polyline fill="none" stroke="gray" points="986,-318 986,-406 "/>
<path fill="none" stroke="gray" d="M986,-406C986,-412 980,-418 974,-418"/>
<polyline fill="none" stroke="gray" points="974,-418 880,-418 "/>
<path fill="none" stroke="gray" d="M880,-418C874,-418 868,-412 868,-406"/>
<polyline fill="none" stroke="gray" points="868,-406 868,-318 "/>
<path fill="none" stroke="gray" d="M868,-318C868,-312 874,-306 880,-306"/>
<text text-anchor="middle" x="927" y="-404.1" font-family="Times Roman,serif" font-size="11.00" fill="gray">NoPrefix</text>
</g>
<g id="graph18" class="cluster"><title>cluster_Xazure\Plugin\NoPrefix\Property</title>
<polyline fill="none" stroke="gray" points="888,-314 966,-314 "/>
<path fill="none" stroke="gray" d="M966,-314C972,-314 978,-320 978,-326"/>
<polyline fill="none" stroke="gray" points="978,-326 978,-376 "/>
<path fill="none" stroke="gray" d="M978,-376C978,-382 972,-388 966,-388"/>
<polyline fill="none" stroke="gray" points="966,-388 888,-388 "/>
<path fill="none" stroke="gray" d="M888,-388C882,-388 876,-382 876,-376"/>
<polyline fill="none" stroke="gray" points="876,-376 876,-326 "/>
<path fill="none" stroke="gray" d="M876,-326C876,-320 882,-314 888,-314"/>
<text text-anchor="middle" x="927" y="-374.1" font-family="Times Roman,serif" font-size="11.00" fill="gray">Property</text>
</g>
<!-- \\Xazure\\Css\\Element\\ValueInterface -->
<g id="node4" class="node"><title>\\Xazure\\Css\\Element\\ValueInterface</title>
<a xlink:href="Element.ValueInterface.html" xlink:title="ValueInterface" target="_parent">
<polygon fill="none" stroke="black" points="351,-1088 241,-1088 241,-1052 351,-1052 351,-1088"/>
<text text-anchor="middle" x="296" y="-1067.1" font-family="Courier,monospace" font-size="11.00">ValueInterface</text>
</a>
</g>
<!-- \\Xazure\\Css\\Element\\Blank -->
<g id="node5" class="node"><title>\\Xazure\\Css\\Element\\Blank</title>
<a xlink:href="Element.Blank.html" xlink:title="Blank" target="_parent">
<polygon fill="none" stroke="black" points="323,-1250 269,-1250 269,-1214 323,-1214 323,-1250"/>
<text text-anchor="middle" x="296" y="-1229.1" font-family="Courier,monospace" font-size="11.00">Blank</text>
</a>
</g>
<!-- \\Xazure\\Css\\Element\\ElementInterface -->
<g id="node6" class="node"><title>\\Xazure\\Css\\Element\\ElementInterface</title>
<a xlink:href="Element.ElementInterface.html" xlink:title="ElementInterface" target="_parent">
<polygon fill="none" stroke="black" points="157,-1142 33,-1142 33,-1106 157,-1106 157,-1142"/>
<text text-anchor="middle" x="95" y="-1121.1" font-family="Courier,monospace" font-size="11.00">ElementInterface</text>
</a>
</g>
<!-- \\Xazure\\Css\\Element\\Blank&#45;&gt;\\Xazure\\Css\\Element\\ElementInterface -->
<g id="edge59" class="edge"><title>\\Xazure\\Css\\Element\\Blank&#45;&gt;\\Xazure\\Css\\Element\\ElementInterface</title>
<path fill="none" stroke="black" stroke-dasharray="1,5" d="M268.934,-1222C256.833,-1217.26 242.508,-1211.27 230,-1205 195.309,-1187.62 157.582,-1164.61 130.852,-1147.56"/>
<polygon fill="none" stroke="black" points="132.534,-1144.48 122.229,-1142.02 128.751,-1150.37 132.534,-1144.48"/>
</g>
<!-- \\Xazure\\Css\\Element\\Block -->
<g id="node7" class="node"><title>\\Xazure\\Css\\Element\\Block</title>
<a xlink:href="Element.Block.html" xlink:title="Block" target="_parent">
<polygon fill="none" stroke="black" points="524,-1169 470,-1169 470,-1133 524,-1133 524,-1169"/>
<text text-anchor="middle" x="497" y="-1148.1" font-family="Courier,monospace" font-size="11.00">Block</text>
</a>
</g>
<!-- \\Xazure\\Css\\Element\\ElementGroup -->
<g id="node10" class="node"><title>\\Xazure\\Css\\Element\\ElementGroup</title>
<a xlink:href="Element.ElementGroup.html" xlink:title="ElementGroup" target="_parent">
<polygon fill="none" stroke="black" points="345,-1142 247,-1142 247,-1106 345,-1106 345,-1142"/>
<text text-anchor="middle" x="296" y="-1121.1" font-family="Courier,monospace" font-size="11.00">ElementGroup</text>
</a>
</g>
<!-- \\Xazure\\Css\\Element\\Block&#45;&gt;\\Xazure\\Css\\Element\\ElementGroup -->
<g id="edge25" class="edge"><title>\\Xazure\\Css\\Element\\Block&#45;&gt;\\Xazure\\Css\\Element\\ElementGroup</title>
<path fill="none" stroke="black" d="M469.892,-1147.36C440.579,-1143.42 392.949,-1137.02 354.944,-1131.92"/>
<polygon fill="none" stroke="black" points="355.382,-1128.45 345.005,-1130.58 354.45,-1135.38 355.382,-1128.45"/>
</g>
<!-- \\Xazure\\Css\\Element\\SelectorInterface -->
<g id="node11" class="node"><title>\\Xazure\\Css\\Element\\SelectorInterface</title>
<a xlink:href="Element.SelectorInterface.html" xlink:title="SelectorInterface" target="_parent">
<polygon fill="none" stroke="black" points="361,-1196 231,-1196 231,-1160 361,-1160 361,-1196"/>
<text text-anchor="middle" x="296" y="-1175.1" font-family="Courier,monospace" font-size="11.00">SelectorInterface</text>
</a>
</g>
<!-- \\Xazure\\Css\\Element\\Block&#45;&gt;\\Xazure\\Css\\Element\\SelectorInterface -->
<g id="edge61" class="edge"><title>\\Xazure\\Css\\Element\\Block&#45;&gt;\\Xazure\\Css\\Element\\SelectorInterface</title>
<path fill="none" stroke="black" stroke-dasharray="1,5" d="M469.892,-1154.64C444.73,-1158.02 406.071,-1163.21 371.588,-1167.85"/>
<polygon fill="none" stroke="black" points="370.96,-1164.4 361.515,-1169.2 371.892,-1171.34 370.96,-1164.4"/>
</g>
<!-- \\Xazure\\Css\\Element\\AtRule -->
<g id="node8" class="node"><title>\\Xazure\\Css\\Element\\AtRule</title>
<a xlink:href="Element.AtRule.html" xlink:title="AtRule" target="_parent">
<polygon fill="none" stroke="black" points="750,-1024 694,-1024 694,-988 750,-988 750,-1024"/>
<text text-anchor="middle" x="722" y="-1003.1" font-family="Courier,monospace" font-size="11.00">AtRule</text>
</a>
</g>
<!-- \\Xazure\\Css\\Element\\Property -->
<g id="node9" class="node"><title>\\Xazure\\Css\\Element\\Property</title>
<a xlink:href="Element.Property.html" xlink:title="Property" target="_parent">
<polygon fill="none" stroke="black" points="532,-1024 462,-1024 462,-988 532,-988 532,-1024"/>
<text text-anchor="middle" x="497" y="-1003.1" font-family="Courier,monospace" font-size="11.00">Property</text>
</a>
</g>
<!-- \\Xazure\\Css\\Element\\AtRule&#45;&gt;\\Xazure\\Css\\Element\\Property -->
<g id="edge27" class="edge"><title>\\Xazure\\Css\\Element\\AtRule&#45;&gt;\\Xazure\\Css\\Element\\Property</title>
<path fill="none" stroke="black" d="M693.046,-1006C654.947,-1006 587.562,-1006 542.588,-1006"/>
<polygon fill="none" stroke="black" points="542.51,-1002.5 532.51,-1006 542.51,-1009.5 542.51,-1002.5"/>
</g>
<!-- \\Xazure\\Css\\Element\\Property&#45;&gt;\\Xazure\\Css\\Element\\ValueInterface -->
<g id="edge67" class="edge"><title>\\Xazure\\Css\\Element\\Property&#45;&gt;\\Xazure\\Css\\Element\\ValueInterface</title>
<path fill="none" stroke="black" stroke-dasharray="1,5" d="M461.065,-1017.44C433.419,-1026.24 394.469,-1038.65 361.347,-1049.19"/>
<polygon fill="none" stroke="black" points="360.192,-1045.89 351.725,-1052.26 362.315,-1052.56 360.192,-1045.89"/>
</g>
<!-- \\Xazure\\Css\\Element\\Property&#45;&gt;\\Xazure\\Css\\Element\\ElementInterface -->
<g id="edge63" class="edge"><title>\\Xazure\\Css\\Element\\Property&#45;&gt;\\Xazure\\Css\\Element\\ElementInterface</title>
<path fill="none" stroke="black" stroke-dasharray="1,5" d="M461.239,-994.064C408.423,-978.527 307.457,-956.916 230,-989 177.377,-1010.8 134.571,-1064.16 112.115,-1096.89"/>
<polygon fill="none" stroke="black" points="108.985,-1095.28 106.329,-1105.53 114.801,-1099.17 108.985,-1095.28"/>
</g>
<!-- \\Xazure\\Css\\Element\\NameInterface -->
<g id="node12" class="node"><title>\\Xazure\\Css\\Element\\NameInterface</title>
<a xlink:href="Element.NameInterface.html" xlink:title="NameInterface" target="_parent">
<polygon fill="none" stroke="black" points="348,-1034 244,-1034 244,-998 348,-998 348,-1034"/>
<text text-anchor="middle" x="296" y="-1013.1" font-family="Courier,monospace" font-size="11.00">NameInterface</text>
</a>
</g>
<!-- \\Xazure\\Css\\Element\\Property&#45;&gt;\\Xazure\\Css\\Element\\NameInterface -->
<g id="edge65" class="edge"><title>\\Xazure\\Css\\Element\\Property&#45;&gt;\\Xazure\\Css\\Element\\NameInterface</title>
<path fill="none" stroke="black" stroke-dasharray="1,5" d="M461.065,-1007.79C432.617,-1009.2 392.198,-1011.21 358.478,-1012.89"/>
<polygon fill="none" stroke="black" points="358.063,-1009.41 348.249,-1013.4 358.41,-1016.4 358.063,-1009.41"/>
</g>
<!-- \\Xazure\\Css\\Element\\ElementGroup&#45;&gt;\\Xazure\\Css\\Element\\ElementInterface -->
<g id="edge69" class="edge"><title>\\Xazure\\Css\\Element\\ElementGroup&#45;&gt;\\Xazure\\Css\\Element\\ElementInterface</title>
<path fill="none" stroke="black" stroke-dasharray="1,5" d="M246.83,-1124C223.129,-1124 194.221,-1124 168.015,-1124"/>
<polygon fill="none" stroke="black" points="167.74,-1120.5 157.74,-1124 167.74,-1127.5 167.74,-1120.5"/>
</g>
<!-- \\Xazure\\Css\\Element\\AtRuleBlock -->
<g id="node13" class="node"><title>\\Xazure\\Css\\Element\\AtRuleBlock</title>
<a xlink:href="Element.AtRuleBlock.html" xlink:title="AtRuleBlock" target="_parent">
<polygon fill="none" stroke="black" points="542,-1088 452,-1088 452,-1052 542,-1052 542,-1088"/>
<text text-anchor="middle" x="497" y="-1067.1" font-family="Courier,monospace" font-size="11.00">AtRuleBlock</text>
</a>
</g>
<!-- \\Xazure\\Css\\Element\\AtRuleBlock&#45;&gt;\\Xazure\\Css\\Element\\ValueInterface -->
<g id="edge73" class="edge"><title>\\Xazure\\Css\\Element\\AtRuleBlock&#45;&gt;\\Xazure\\Css\\Element\\ValueInterface</title>
<path fill="none" stroke="black" stroke-dasharray="1,5" d="M451.39,-1070C424.969,-1070 391.247,-1070 361.974,-1070"/>
<polygon fill="none" stroke="black" points="361.825,-1066.5 351.825,-1070 361.825,-1073.5 361.825,-1066.5"/>
</g>
<!-- \\Xazure\\Css\\Element\\AtRuleBlock&#45;&gt;\\Xazure\\Css\\Element\\ElementGroup -->
<g id="edge29" class="edge"><title>\\Xazure\\Css\\Element\\AtRuleBlock&#45;&gt;\\Xazure\\Css\\Element\\ElementGroup</title>
<path fill="none" stroke="black" d="M451.39,-1082.25C422.857,-1089.92 385.81,-1099.87 355.046,-1108.14"/>
<polygon fill="none" stroke="black" points="354.046,-1104.78 345.297,-1110.76 355.862,-1111.54 354.046,-1104.78"/>
</g>
<!-- \\Xazure\\Css\\Element\\AtRuleBlock&#45;&gt;\\Xazure\\Css\\Element\\NameInterface -->
<g id="edge71" class="edge"><title>\\Xazure\\Css\\Element\\AtRuleBlock&#45;&gt;\\Xazure\\Css\\Element\\NameInterface</title>
<path fill="none" stroke="black" stroke-dasharray="1,5" d="M451.39,-1057.75C423.813,-1050.34 388.283,-1040.79 358.158,-1032.7"/>
<polygon fill="none" stroke="black" points="358.735,-1029.23 348.169,-1030.02 356.918,-1035.99 358.735,-1029.23"/>
</g>
<!-- \\Xazure\\Css\\Plugin\\Callback\\GlobalCallback -->
<g id="node16" class="node"><title>\\Xazure\\Css\\Plugin\\Callback\\GlobalCallback</title>
<a xlink:href="Plugin.Callback.GlobalCallback.html" xlink:title="GlobalCallback" target="_parent">
<polygon fill="none" stroke="black" points="552,-720 442,-720 442,-684 552,-684 552,-720"/>
<text text-anchor="middle" x="497" y="-699.1" font-family="Courier,monospace" font-size="11.00">GlobalCallback</text>
</a>
</g>
<!-- \\Xazure\\Css\\Plugin\\Callback\\Callback -->
<g id="node27" class="node"><title>\\Xazure\\Css\\Plugin\\Callback\\Callback</title>
<a xlink:href="Plugin.Callback.Callback.html" xlink:title="«abstract»&lt;br/&gt;Callback" target="_parent">
<polygon fill="none" stroke="black" points="338,-720 254,-720 254,-684 338,-684 338,-720"/>
<text text-anchor="start" x="262" y="-707.433" font-family="Courier,monospace" font-size="11.00">«abstract»</text>
<text text-anchor="start" x="268.5" y="-694.233" font-family="Courier,monospace" font-size="11.00">Callback</text>
</a>
</g>
<!-- \\Xazure\\Css\\Plugin\\Callback\\GlobalCallback&#45;&gt;\\Xazure\\Css\\Plugin\\Callback\\Callback -->
<g id="edge31" class="edge"><title>\\Xazure\\Css\\Plugin\\Callback\\GlobalCallback&#45;&gt;\\Xazure\\Css\\Plugin\\Callback\\Callback</title>
<path fill="none" stroke="black" d="M441.277,-702C412.408,-702 377.342,-702 348.895,-702"/>
<polygon fill="none" stroke="black" points="348.737,-698.5 338.737,-702 348.737,-705.5 348.737,-698.5"/>
</g>
<!-- \\Xazure\\Css\\Plugin\\Callback\\PropertyValueCallback -->
<g id="node17" class="node"><title>\\Xazure\\Css\\Plugin\\Callback\\PropertyValueCallback</title>
<a xlink:href="Plugin.Callback.PropertyValueCallback.html" xlink:title="PropertyValueCallback" target="_parent">
<polygon fill="none" stroke="black" points="801,-632 643,-632 643,-596 801,-596 801,-632"/>
<text text-anchor="middle" x="722" y="-611.1" font-family="Courier,monospace" font-size="11.00">PropertyValueCallback</text>
</a>
</g>
<!-- \\Xazure\\Css\\Plugin\\Callback\\ValueCallback -->
<g id="node28" class="node"><title>\\Xazure\\Css\\Plugin\\Callback\\ValueCallback</title>
<a xlink:href="Plugin.Callback.ValueCallback.html" xlink:title="«abstract»&lt;br/&gt;ValueCallback" target="_parent">
<polygon fill="none" stroke="black" points="549,-639 445,-639 445,-603 549,-603 549,-639"/>
<text text-anchor="start" x="463" y="-626.433" font-family="Courier,monospace" font-size="11.00">«abstract»</text>
<text text-anchor="start" x="453" y="-613.233" font-family="Courier,monospace" font-size="11.00">ValueCallback</text>
</a>
</g>
<!-- \\Xazure\\Css\\Plugin\\Callback\\PropertyValueCallback&#45;&gt;\\Xazure\\Css\\Plugin\\Callback\\ValueCallback -->
<g id="edge33" class="edge"><title>\\Xazure\\Css\\Plugin\\Callback\\PropertyValueCallback&#45;&gt;\\Xazure\\Css\\Plugin\\Callback\\ValueCallback</title>
<path fill="none" stroke="black" d="M642.99,-616.458C615.714,-617.307 585.549,-618.245 559.753,-619.048"/>
<polygon fill="none" stroke="black" points="559.614,-615.55 549.728,-619.36 559.832,-622.547 559.614,-615.55"/>
</g>
<!-- \\Xazure\\Css\\Plugin\\Callback\\NameCallback -->
<g id="node18" class="node"><title>\\Xazure\\Css\\Plugin\\Callback\\NameCallback</title>
<a xlink:href="Plugin.Callback.NameCallback.html" xlink:title="«abstract»&lt;br/&gt;NameCallback" target="_parent">
<polygon fill="none" stroke="black" points="546,-841 448,-841 448,-805 546,-805 546,-841"/>
<text text-anchor="start" x="463" y="-828.433" font-family="Courier,monospace" font-size="11.00">«abstract»</text>
<text text-anchor="start" x="456" y="-815.233" font-family="Courier,monospace" font-size="11.00">NameCallback</text>
</a>
</g>
<!-- \\Xazure\\Css\\Plugin\\Callback\\NameCallback&#45;&gt;\\Xazure\\Css\\Plugin\\Callback\\Callback -->
<g id="edge35" class="edge"><title>\\Xazure\\Css\\Plugin\\Callback\\NameCallback&#45;&gt;\\Xazure\\Css\\Plugin\\Callback\\Callback</title>
<path fill="none" stroke="black" d="M466.908,-804.885C431.727,-783.706 373.411,-748.601 334.842,-725.383"/>
<polygon fill="none" stroke="black" points="336.341,-722.2 325.969,-720.041 332.731,-728.197 336.341,-722.2"/>
</g>
<!-- \\Xazure\\Css\\Plugin\\Callback\\AtRuleValueCallback -->
<g id="node19" class="node"><title>\\Xazure\\Css\\Plugin\\Callback\\AtRuleValueCallback</title>
<a xlink:href="Plugin.Callback.AtRuleValueCallback.html" xlink:title="AtRuleValueCallback" target="_parent">
<polygon fill="none" stroke="black" points="794,-578 650,-578 650,-542 794,-542 794,-578"/>
<text text-anchor="middle" x="722" y="-557.1" font-family="Courier,monospace" font-size="11.00">AtRuleValueCallback</text>
</a>
</g>
<!-- \\Xazure\\Css\\Plugin\\Callback\\AtRuleValueCallback&#45;&gt;\\Xazure\\Css\\Plugin\\Callback\\ValueCallback -->
<g id="edge37" class="edge"><title>\\Xazure\\Css\\Plugin\\Callback\\AtRuleValueCallback&#45;&gt;\\Xazure\\Css\\Plugin\\Callback\\ValueCallback</title>
<path fill="none" stroke="black" d="M655.406,-578.054C625.136,-586.261 589.514,-595.918 559.724,-603.995"/>
<polygon fill="none" stroke="black" points="558.597,-600.674 549.861,-606.669 560.429,-607.43 558.597,-600.674"/>
</g>
<!-- \\Xazure\\Css\\Plugin\\Callback\\AtRuleBlockValueCallback -->
<g id="node20" class="node"><title>\\Xazure\\Css\\Plugin\\Callback\\AtRuleBlockValueCallback</title>
<a xlink:href="Plugin.Callback.AtRuleBlockValueCallback.html" xlink:title="AtRuleBlockValueCallback" target="_parent">
<polygon fill="none" stroke="black" points="811,-686 633,-686 633,-650 811,-650 811,-686"/>
<text text-anchor="middle" x="722" y="-665.1" font-family="Courier,monospace" font-size="11.00">AtRuleBlockValueCallback</text>
</a>
</g>
<!-- \\Xazure\\Css\\Plugin\\Callback\\AtRuleBlockValueCallback&#45;&gt;\\Xazure\\Css\\Plugin\\Callback\\ValueCallback -->
<g id="edge39" class="edge"><title>\\Xazure\\Css\\Plugin\\Callback\\AtRuleBlockValueCallback&#45;&gt;\\Xazure\\Css\\Plugin\\Callback\\ValueCallback</title>
<path fill="none" stroke="black" d="M635.653,-649.963C610.278,-644.663 583.025,-638.97 559.453,-634.046"/>
<polygon fill="none" stroke="black" points="560.097,-630.605 549.593,-631.986 558.666,-637.457 560.097,-630.605"/>
</g>
<!-- \\Xazure\\Css\\Plugin\\Callback\\BlockSelectorCallback -->
<g id="node21" class="node"><title>\\Xazure\\Css\\Plugin\\Callback\\BlockSelectorCallback</title>
<a xlink:href="Plugin.Callback.BlockSelectorCallback.html" xlink:title="BlockSelectorCallback" target="_parent">
<polygon fill="none" stroke="black" points="801,-524 643,-524 643,-488 801,-488 801,-524"/>
<text text-anchor="middle" x="722" y="-503.1" font-family="Courier,monospace" font-size="11.00">BlockSelectorCallback</text>
</a>
</g>
<!-- \\Xazure\\Css\\Plugin\\Callback\\SelectorCallback -->
<g id="node26" class="node"><title>\\Xazure\\Css\\Plugin\\Callback\\SelectorCallback</title>
<a xlink:href="Plugin.Callback.SelectorCallback.html" xlink:title="«abstract»&lt;br/&gt;SelectorCallback" target="_parent">
<polygon fill="none" stroke="black" points="560,-558 434,-558 434,-522 560,-522 560,-558"/>
<text text-anchor="start" x="463" y="-545.433" font-family="Courier,monospace" font-size="11.00">«abstract»</text>
<text text-anchor="start" x="442.5" y="-532.233" font-family="Courier,monospace" font-size="11.00">SelectorCallback</text>
</a>
</g>
<!-- \\Xazure\\Css\\Plugin\\Callback\\BlockSelectorCallback&#45;&gt;\\Xazure\\Css\\Plugin\\Callback\\SelectorCallback -->
<g id="edge41" class="edge"><title>\\Xazure\\Css\\Plugin\\Callback\\BlockSelectorCallback&#45;&gt;\\Xazure\\Css\\Plugin\\Callback\\SelectorCallback</title>
<path fill="none" stroke="black" d="M642.99,-517.939C619.385,-521.506 593.616,-525.4 570.388,-528.91"/>
<polygon fill="none" stroke="black" points="569.623,-525.486 560.259,-530.441 570.669,-532.407 569.623,-525.486"/>
</g>
<!-- \\Xazure\\Css\\Plugin\\Callback\\AtRuleBlockCallback -->
<g id="node22" class="node"><title>\\Xazure\\Css\\Plugin\\Callback\\AtRuleBlockCallback</title>
<a xlink:href="Plugin.Callback.AtRuleBlockCallback.html" xlink:title="AtRuleBlockCallback" target="_parent">
<polygon fill="none" stroke="black" points="794,-902 650,-902 650,-866 794,-866 794,-902"/>
<text text-anchor="middle" x="722" y="-881.1" font-family="Courier,monospace" font-size="11.00">AtRuleBlockCallback</text>
</a>
</g>
<!-- \\Xazure\\Css\\Plugin\\Callback\\AtRuleBlockCallback&#45;&gt;\\Xazure\\Css\\Plugin\\Callback\\NameCallback -->
<g id="edge43" class="edge"><title>\\Xazure\\Css\\Plugin\\Callback\\AtRuleBlockCallback&#45;&gt;\\Xazure\\Css\\Plugin\\Callback\\NameCallback</title>
<path fill="none" stroke="black" d="M655.406,-865.946C624.088,-857.455 587.041,-847.411 556.652,-839.172"/>
<polygon fill="none" stroke="black" points="557.187,-835.691 546.619,-836.452 555.355,-842.447 557.187,-835.691"/>
</g>
<!-- \\Xazure\\Css\\Plugin\\Callback\\AtRuleCallback -->
<g id="node23" class="node"><title>\\Xazure\\Css\\Plugin\\Callback\\AtRuleCallback</title>
<a xlink:href="Plugin.Callback.AtRuleCallback.html" xlink:title="AtRuleCallback" target="_parent">
<polygon fill="none" stroke="black" points="777,-848 667,-848 667,-812 777,-812 777,-848"/>
<text text-anchor="middle" x="722" y="-827.1" font-family="Courier,monospace" font-size="11.00">AtRuleCallback</text>
</a>
</g>
<!-- \\Xazure\\Css\\Plugin\\Callback\\AtRuleCallback&#45;&gt;\\Xazure\\Css\\Plugin\\Callback\\NameCallback -->
<g id="edge45" class="edge"><title>\\Xazure\\Css\\Plugin\\Callback\\AtRuleCallback&#45;&gt;\\Xazure\\Css\\Plugin\\Callback\\NameCallback</title>
<path fill="none" stroke="black" d="M666.382,-828.27C633.124,-827.235 590.867,-825.92 556.88,-824.863"/>
<polygon fill="none" stroke="black" points="556.721,-821.356 546.617,-824.544 556.503,-828.353 556.721,-821.356"/>
</g>
<!-- \\Xazure\\Css\\Plugin\\Callback\\OutputCallback -->
<g id="node24" class="node"><title>\\Xazure\\Css\\Plugin\\Callback\\OutputCallback</title>
<a xlink:href="Plugin.Callback.OutputCallback.html" xlink:title="OutputCallback" target="_parent">
<polygon fill="none" stroke="black" points="777,-740 667,-740 667,-704 777,-704 777,-740"/>
<text text-anchor="middle" x="722" y="-719.1" font-family="Courier,monospace" font-size="11.00">OutputCallback</text>
</a>
</g>
<!-- \\Xazure\\Css\\Plugin\\Callback\\OutputCallback&#45;&gt;\\Xazure\\Css\\Plugin\\Callback\\GlobalCallback -->
<g id="edge47" class="edge"><title>\\Xazure\\Css\\Plugin\\Callback\\OutputCallback&#45;&gt;\\Xazure\\Css\\Plugin\\Callback\\GlobalCallback</title>
<path fill="none" stroke="black" d="M666.382,-717.056C635.011,-714.268 595.633,-710.767 562.741,-707.844"/>
<polygon fill="none" stroke="black" points="563.029,-704.355 552.758,-706.956 562.409,-711.328 563.029,-704.355"/>
</g>
<!-- \\Xazure\\Css\\Plugin\\Callback\\BlockCallback -->
<g id="node25" class="node"><title>\\Xazure\\Css\\Plugin\\Callback\\BlockCallback</title>
<a xlink:href="Plugin.Callback.BlockCallback.html" xlink:title="BlockCallback" target="_parent">
<polygon fill="none" stroke="black" points="549,-774 445,-774 445,-738 549,-738 549,-774"/>
<text text-anchor="middle" x="497" y="-753.1" font-family="Courier,monospace" font-size="11.00">BlockCallback</text>
</a>
</g>
<!-- \\Xazure\\Css\\Plugin\\Callback\\BlockCallback&#45;&gt;\\Xazure\\Css\\Plugin\\Callback\\Callback -->
<g id="edge49" class="edge"><title>\\Xazure\\Css\\Plugin\\Callback\\BlockCallback&#45;&gt;\\Xazure\\Css\\Plugin\\Callback\\Callback</title>
<path fill="none" stroke="black" d="M444.976,-742.023C415.296,-734.05 378.2,-724.084 348.45,-716.091"/>
<polygon fill="none" stroke="black" points="349.229,-712.676 338.663,-713.462 347.413,-719.437 349.229,-712.676"/>
</g>
<!-- \\Xazure\\Css\\Plugin\\Callback\\SelectorCallback&#45;&gt;\\Xazure\\Css\\Plugin\\Callback\\Callback -->
<g id="edge51" class="edge"><title>\\Xazure\\Css\\Plugin\\Callback\\SelectorCallback&#45;&gt;\\Xazure\\Css\\Plugin\\Callback\\Callback</title>
<path fill="none" stroke="black" d="M474.333,-558.269C438.122,-587.454 367.174,-644.636 326.531,-677.393"/>
<polygon fill="none" stroke="black" points="324.173,-674.798 318.584,-683.798 328.566,-680.248 324.173,-674.798"/>
</g>
<!-- \\Xazure\\Css\\Plugin\\Callback\\ValueCallback&#45;&gt;\\Xazure\\Css\\Plugin\\Callback\\Callback -->
<g id="edge53" class="edge"><title>\\Xazure\\Css\\Plugin\\Callback\\ValueCallback&#45;&gt;\\Xazure\\Css\\Plugin\\Callback\\Callback</title>
<path fill="none" stroke="black" d="M452.142,-639.077C421.287,-651.511 380.215,-668.063 347.939,-681.069"/>
<polygon fill="none" stroke="black" points="346.623,-677.826 338.656,-684.81 349.24,-684.319 346.623,-677.826"/>
</g>
<!-- \\Xazure\\Css\\Plugin\\Callback\\PropertyCallback -->
<g id="node29" class="node"><title>\\Xazure\\Css\\Plugin\\Callback\\PropertyCallback</title>
<a xlink:href="Plugin.Callback.PropertyCallback.html" xlink:title="PropertyCallback" target="_parent">
<polygon fill="none" stroke="black" points="784,-794 660,-794 660,-758 784,-758 784,-794"/>
<text text-anchor="middle" x="722" y="-773.1" font-family="Courier,monospace" font-size="11.00">PropertyCallback</text>
</a>
</g>
<!-- \\Xazure\\Css\\Plugin\\Callback\\PropertyCallback&#45;&gt;\\Xazure\\Css\\Plugin\\Callback\\NameCallback -->
<g id="edge55" class="edge"><title>\\Xazure\\Css\\Plugin\\Callback\\PropertyCallback&#45;&gt;\\Xazure\\Css\\Plugin\\Callback\\NameCallback</title>
<path fill="none" stroke="black" d="M659.325,-789.092C627.176,-795.808 588.224,-803.944 556.536,-810.564"/>
<polygon fill="none" stroke="black" points="555.594,-807.185 546.521,-812.656 557.025,-814.037 555.594,-807.185"/>
</g>
<!-- \\Xazure\\Css\\Plugin\\NoPrefix\\Property\\BorderRadiusProperty -->
<g id="node32" class="node"><title>\\Xazure\\Css\\Plugin\\NoPrefix\\Property\\BorderRadiusProperty</title>
<a xlink:href="Plugin.NoPrefix.Property.BorderRadiusProperty.html" xlink:title="BorderRadiusProperty" target="_parent">
<polygon fill="none" stroke="black" points="798,-412 646,-412 646,-376 798,-376 798,-412"/>
<text text-anchor="middle" x="722" y="-391.1" font-family="Courier,monospace" font-size="11.00">BorderRadiusProperty</text>
</a>
</g>
<!-- \\Xazure\\Css\\Plugin\\NoPrefix\\Property\\BorderRadiusProperty&#45;&gt;\\Xazure\\Css\\Element\\Property -->
<g id="edge57" class="edge"><title>\\Xazure\\Css\\Plugin\\NoPrefix\\Property\\BorderRadiusProperty&#45;&gt;\\Xazure\\Css\\Element\\Property</title>
<path fill="none" stroke="black" d="M692.574,-412.105C671.583,-426.67 644.585,-449.104 630,-476 531.417,-657.788 648.442,-749.068 560,-936 552.067,-952.767 538.792,-968.421 526.468,-980.656"/>
<polygon fill="none" stroke="black" points="523.789,-978.374 518.973,-987.811 528.623,-983.437 523.789,-978.374"/>
</g>
<!-- \\Xazure\\Css\\Plugin\\NoPrefix\\Property\\PropertyInterface -->
<g id="node33" class="node"><title>\\Xazure\\Css\\Plugin\\NoPrefix\\Property\\PropertyInterface</title>
<a xlink:href="Plugin.NoPrefix.Property.PropertyInterface.html" xlink:title="PropertyInterface" target="_parent">
<polygon fill="none" stroke="black" points="787,-358 657,-358 657,-322 787,-322 787,-358"/>
<text text-anchor="middle" x="722" y="-337.1" font-family="Courier,monospace" font-size="11.00">PropertyInterface</text>
</a>
</g>
<!-- \\Xazure\\Css\\Plugin\\NoPrefix\\NoPrefixPlugin -->
<g id="node34" class="node"><title>\\Xazure\\Css\\Plugin\\NoPrefix\\NoPrefixPlugin</title>
<a xlink:href="Plugin.NoPrefix.NoPrefixPlugin.html" xlink:title="NoPrefixPlugin" target="_parent">
<polygon fill="none" stroke="black" points="777,-304 667,-304 667,-268 777,-268 777,-304"/>
<text text-anchor="middle" x="722" y="-283.1" font-family="Courier,monospace" font-size="11.00">NoPrefixPlugin</text>
</a>
</g>
<!-- \\Xazure\\Css\\Plugin\\PluginInterface -->
<g id="node37" class="node"><title>\\Xazure\\Css\\Plugin\\PluginInterface</title>
<a xlink:href="Plugin.PluginInterface.html" xlink:title="PluginInterface" target="_parent">
<polygon fill="none" stroke="black" points="556,-250 438,-250 438,-214 556,-214 556,-250"/>
<text text-anchor="middle" x="497" y="-229.1" font-family="Courier,monospace" font-size="11.00">PluginInterface</text>
</a>
</g>
<!-- \\Xazure\\Css\\Plugin\\NoPrefix\\NoPrefixPlugin&#45;&gt;\\Xazure\\Css\\Plugin\\PluginInterface -->
<g id="edge81" class="edge"><title>\\Xazure\\Css\\Plugin\\NoPrefix\\NoPrefixPlugin&#45;&gt;\\Xazure\\Css\\Plugin\\PluginInterface</title>
<path fill="none" stroke="black" stroke-dasharray="1,5" d="M666.048,-272.633C654.148,-269.787 641.658,-266.796 630,-264 609.26,-259.025 586.705,-253.603 566.159,-248.659"/>
<polygon fill="none" stroke="black" points="566.793,-245.212 556.251,-246.275 565.155,-252.017 566.793,-245.212"/>
</g>
<!-- \\Xazure\\Css\\Plugin\\BeautifyPlugin -->
<g id="node36" class="node"><title>\\Xazure\\Css\\Plugin\\BeautifyPlugin</title>
<a xlink:href="Plugin.BeautifyPlugin.html" xlink:title="BeautifyPlugin" target="_parent">
<polygon fill="none" stroke="black" points="777,-250 667,-250 667,-214 777,-214 777,-250"/>
<text text-anchor="middle" x="722" y="-229.1" font-family="Courier,monospace" font-size="11.00">BeautifyPlugin</text>
</a>
</g>
<!-- \\Xazure\\Css\\Plugin\\BeautifyPlugin&#45;&gt;\\Xazure\\Css\\Plugin\\PluginInterface -->
<g id="edge75" class="edge"><title>\\Xazure\\Css\\Plugin\\BeautifyPlugin&#45;&gt;\\Xazure\\Css\\Plugin\\PluginInterface</title>
<path fill="none" stroke="black" stroke-dasharray="1,5" d="M666.382,-232C636.203,-232 598.614,-232 566.518,-232"/>
<polygon fill="none" stroke="black" points="566.307,-228.5 556.307,-232 566.307,-235.5 566.307,-228.5"/>
</g>
<!-- \\Xazure\\Css\\Plugin\\AtVarPlugin -->
<g id="node38" class="node"><title>\\Xazure\\Css\\Plugin\\AtVarPlugin</title>
<a xlink:href="Plugin.AtVarPlugin.html" xlink:title="AtVarPlugin" target="_parent">
<polygon fill="none" stroke="black" points="767,-196 677,-196 677,-160 767,-160 767,-196"/>
<text text-anchor="middle" x="722" y="-175.1" font-family="Courier,monospace" font-size="11.00">AtVarPlugin</text>
</a>
</g>
<!-- \\Xazure\\Css\\Plugin\\AtVarPlugin&#45;&gt;\\Xazure\\Css\\Plugin\\PluginInterface -->
<g id="edge77" class="edge"><title>\\Xazure\\Css\\Plugin\\AtVarPlugin&#45;&gt;\\Xazure\\Css\\Plugin\\PluginInterface</title>
<path fill="none" stroke="black" stroke-dasharray="1,5" d="M676.468,-188.928C644.777,-196.534 601.938,-206.815 566.063,-215.425"/>
<polygon fill="none" stroke="black" points="565.051,-212.068 556.144,-217.806 566.684,-218.875 565.051,-212.068"/>
</g>
<!-- \\Xazure\\Css\\Setting\\SettingsContainer -->
<g id="node44" class="node"><title>\\Xazure\\Css\\Setting\\SettingsContainer</title>
<a xlink:href="Setting.SettingsContainer.html" xlink:title="SettingsContainer" target="_parent">
<polygon fill="none" stroke="black" points="787,-114 657,-114 657,-78 787,-78 787,-114"/>
<text text-anchor="middle" x="722" y="-93.1" font-family="Courier,monospace" font-size="11.00">SettingsContainer</text>
</a>
</g>
<!-- \\Xazure\\Css\\Generator -->
<g id="node45" class="node"><title>\\Xazure\\Css\\Generator</title>
<a xlink:href="Generator.html" xlink:title="Generator" target="_parent">
<polygon fill="none" stroke="black" points="760,-60 684,-60 684,-24 760,-24 760,-60"/>
<text text-anchor="middle" x="722" y="-39.1" font-family="Courier,monospace" font-size="11.00">Generator</text>
</a>
</g>
<!-- \\Xazure\\Plugin\\NoPrefix\\Property\\Property -->
<g id="node50" class="node"><title>\\Xazure\\Plugin\\NoPrefix\\Property\\Property</title>
<a xlink:href="Plugin.NoPrefix.Property.Property.html" xlink:title="«abstract»&lt;br/&gt;Property" target="_parent">
<polygon fill="none" stroke="black" points="969,-358 885,-358 885,-322 969,-322 969,-358"/>
<text text-anchor="start" x="893" y="-345.433" font-family="Courier,monospace" font-size="11.00">«abstract»</text>
<text text-anchor="start" x="899.5" y="-332.233" font-family="Courier,monospace" font-size="11.00">Property</text>
</a>
</g>
<!-- \\Xazure\\Plugin\\NoPrefix\\Property\\Property&#45;&gt;\\Xazure\\Css\\Plugin\\NoPrefix\\Property\\PropertyInterface -->
<g id="edge79" class="edge"><title>\\Xazure\\Plugin\\NoPrefix\\Property\\Property&#45;&gt;\\Xazure\\Css\\Plugin\\NoPrefix\\Property\\PropertyInterface</title>
<path fill="none" stroke="black" stroke-dasharray="1,5" d="M884.025,-340C859.029,-340 826.806,-340 797.688,-340"/>
<polygon fill="none" stroke="black" points="797.535,-336.5 787.535,-340 797.535,-343.5 797.535,-336.5"/>
</g>
</g>
</svg>
